<svg xmlns="http://www.w3.org/2000/svg" width="64" height="64" viewBox="0 0 16.93 16.93">
  <style>@media (prefers-color-scheme:dark){path{fill:#fff}}</style>
  <path d="M3.85 13.06q-.93 0-1.5-.6-.54-.6-.54-1.7V7.1h1.62v3.35q0 .58.28.9.28.3.8.3.5 0 .8-.32.33-.31.33-1V7.12h1.62v5.82h-1.6v-.91q-.3.5-.73.77-.45.27-1.08.27zm4.57 2.18V7.1h1.6v.8h.02q.27-.46.7-.7.45-.22 1.02-.22.75 0 1.3.39.58.38.9 1.06.3.69.3 1.58 0 .9-.3 1.6-.32.67-.9 1.05-.55.39-1.31.39-1.18 0-1.7-1v3.18zm2.9-3.5q.6 0 .96-.45.35-.46.35-1.27 0-.82-.35-1.26-.36-.46-.95-.46-.61 0-1 .47-.36.47-.36 1.25t.37 1.25q.38.46 1 .46zm4.65 1.3q-.4 0-.66-.28-.27-.27-.27-.66 0-.4.27-.67t.66-.27q.39 0 .66.27.28.28.28.67t-.28.66q-.27.27-.66.27z"/>
</svg>
